<svg xmlns="http://www.w3.org/2000/svg" viewBox="0 0 236.95 160.65"><path d="M63.61,133.71H15a.83.83,0,0,1,0-1.66H63.61a.83.83,0,0,1,0,1.66Z" transform="translate(0.02 -5.42)" style="fill:#a59e86"/><path d="M76.56,133.71H67.74a.83.83,0,0,1,0-1.66h8.82a.83.83,0,0,1,0,1.66Z" transform="translate(0.02 -5.42)" style="fill:#a59e86"/><path d="M81.19,133.71H79.81a.83.83,0,0,1,0-1.66h1.38a.83.83,0,0,1,0,1.66Z" transform="translate(0.02 -5.42)" style="fill:#a59e86"/><path d="M221.8,133.71H170.93a.83.83,0,1,1,0-1.66H221.8a.83.83,0,0,1,0,1.66Z" transform="translate(0.02 -5.42)" style="fill:#a59e86"/><path d="M166.52,133.71h-8.93a.83.83,0,1,1,0-1.66h8.93a.83.83,0,1,1,0,1.66Z" transform="translate(0.02 -5.42)" style="fill:#a59e86"/><path d="M154.33,133.71H153a.83.83,0,1,1,0-1.66h1.37a.83.83,0,1,1,0,1.66Z" transform="translate(0.02 -5.42)" style="fill:#a59e86"/><path d="M22.71,138.22h38.8a.31.31,0,0,0,.11-.61.21.21,0,0,0-.11,0H22.71a.31.31,0,0,0-.25.36A.3.3,0,0,0,22.71,138.22Z" transform="translate(0.02 -5.42)" style="fill:#a59e86"/><path d="M115.5,145.43a8,8,0,0,0-.94-1.3,7.57,7.57,0,0,0-1.18-1.08,7.45,7.45,0,0,0-1.58-.89,9.82,9.82,0,0,0-4.77-.62,14.5,14.5,0,0,0-4.56,1.28,27.12,27.12,0,0,0-2.79,1.55c-.82.52-1.61,1.07-2.6,1.75l-.92.63L94.92,146c-1.62-1-3.24-2-6.6-3.86s-5.4-2.58-7.45-2.77a8.66,8.66,0,0,0-1.61,0,6.74,6.74,0,0,0-1.77.43,7.6,7.6,0,0,0-1.93,1.07A6.41,6.41,0,0,0,73.75,143a4.61,4.61,0,0,0,.26,4.52,5.46,5.46,0,0,0,1.12,1.28,7.6,7.6,0,0,0,1.22.81,7.39,7.39,0,0,0,2.64.78,8.83,8.83,0,0,0,3.39-.4,15.81,15.81,0,0,0,4.23-2.26c1.13-.85,1.11-1,.56-.88s-1.62.7-2.67,1.18a12.47,12.47,0,0,1-4.39,1.23,6.08,6.08,0,0,1-2.24-.31,5.91,5.91,0,0,1-2-1.09A3.53,3.53,0,0,1,74.73,144a5.12,5.12,0,0,1,3.15-2.89,6,6,0,0,1,3.43-.17,11.74,11.74,0,0,1,3,1.1,32,32,0,0,1,3,1.87c3.16,2.15,4.76,3.19,6.38,4.21l.2.13-.57.33a33.16,33.16,0,0,1-4,2,28.28,28.28,0,0,1-2.85,1c-.44.13-.89.26-1.37.37l-.74.17-.8.16a24.86,24.86,0,0,1-4.31.4,19.44,19.44,0,0,1-4.23-.46c-.54-.12-1-.28-1.47-.41a8.6,8.6,0,0,1-1.27-.48,12.47,12.47,0,0,1-1.23-.59l-.65-.34-.67-.42a16,16,0,0,1-3.2-2.71,16.33,16.33,0,0,1-2.53-4c-.12-.27-.23-.54-.35-.79a7.67,7.67,0,0,1-.27-.76l-.15-.38L63.1,141l-.1-.2-.09-.37a1.12,1.12,0,0,0-.29-.63c-.15-.17-.54-.26-1.74-.26H24a5,5,0,0,1-.55,0h-.57a3.25,3.25,0,0,0-1.35.14,1.74,1.74,0,0,0-.67.44,1.85,1.85,0,0,0-.42.68,2.1,2.1,0,0,0,0,1.52,2,2,0,0,0,.48.68,1.82,1.82,0,0,0,.79.44,1.45,1.45,0,0,0,1.54-.6,1.14,1.14,0,0,0,0-1.18c-.17-.28-.4-.35-.47-.32s0,.1,0,.27a.8.8,0,0,1,0,.57.58.58,0,0,1-.51.41.92.92,0,0,1-.73-.29,1.09,1.09,0,0,1-.25-.85.77.77,0,0,1,.47-.66,2.11,2.11,0,0,1,1.06,0l.66.08h1.8c2.67.07,32.19.1,34.86.14h1a11.35,11.35,0,0,0,1.1,4h0c.12.27.24.55.39.85-.19-.12-.39-.23-.77-.44-4-2.21-9.32-1.66-9.32,1.33s2.59,1.44,2.53.72-.55-.55-.66-.39-1,.45-.77-.49,1.38-1.66,3.42-1.39a11.26,11.26,0,0,1,4.23,1.3,3,3,0,0,1,.72.5l.29.25h-.63a3.21,3.21,0,0,0-.82.07,2.29,2.29,0,0,0-.79.33,1.87,1.87,0,0,0-.61.64,1.76,1.76,0,0,0-.26.86,1.91,1.91,0,0,0,.19.91,1.16,1.16,0,0,0,.24.34,1.31,1.31,0,0,0,.52.31,1.34,1.34,0,0,0,.69,0,1,1,0,0,0,.54-.17.93.93,0,0,0,.36-.63.62.62,0,0,0-.24-.53c-.17-.09-.22,0-.24.08s0,.17-.06.23a.56.56,0,0,1-.25.33.4.4,0,0,1-.42-.09.7.7,0,0,1-.14-.54,1,1,0,0,1,.16-.43,1.26,1.26,0,0,1,.34-.35,1.62,1.62,0,0,1,.46-.22,3.08,3.08,0,0,1,.53-.08,2.44,2.44,0,0,1,.54,0l.47.23a7.82,7.82,0,0,1,.81.43l.8.51.8.51a4.27,4.27,0,0,0,.68.33,3.54,3.54,0,0,0,.58.44l.73.42c.32.24.64.45.94.64a2.83,2.83,0,0,0,.28.2,6,6,0,0,0,.55.31,20,20,0,0,0,2.33,1.12c.46.19,1,.33,1.46.5a10.34,10.34,0,0,0,1.68.41l1,.17,1.1.11a19.24,19.24,0,0,0,2.63,0A27.13,27.13,0,0,0,84,154l.86-.18.78-.21c.51-.12,1-.28,1.45-.41A30.69,30.69,0,0,0,90,152a34.82,34.82,0,0,0,4.08-2.2c.41-.26.8-.51,1.15-.75,1.22.76,2.68,1.65,4.93,3,3.34,2,5.39,2.67,7.46,2.93a9.39,9.39,0,0,0,3.42-.22,8.52,8.52,0,0,0,2.06-.82,6.73,6.73,0,0,0,2.17-1.87,5.66,5.66,0,0,0,1.08-2.7,6.16,6.16,0,0,0-.19-2.26A7.16,7.16,0,0,0,115.5,145.43Zm-1.5,5.69a4.83,4.83,0,0,1-1.7,1.3,6.5,6.5,0,0,1-1.66.56,7.32,7.32,0,0,1-2.72,0c-1.71-.29-3.39-.91-6.56-2.95l-3.92-2.49.46-.33c1-.7,1.73-1.25,2.51-1.77A21.86,21.86,0,0,1,103,144a13.18,13.18,0,0,1,4.16-1.21,8,8,0,0,1,4.17.58,6,6,0,0,1,2.93,2.82,5.18,5.18,0,0,1,.5,1.36A4.16,4.16,0,0,1,114,151.12Z" transform="translate(0.02 -5.42)" style="fill:#a59e86"/><path d="M71.36,148.41a.91.91,0,1,0-.91-.91A.91.91,0,0,0,71.36,148.41Z" transform="translate(0.02 -5.42)" style="fill:#a59e86"/><path d="M70.34,144.78a.91.91,0,1,0-.91-.91A.91.91,0,0,0,70.34,144.78Z" transform="translate(0.02 -5.42)" style="fill:#a59e86"/><path d="M71.7,141.15a.91.91,0,1,0-.91-.91.91.91,0,0,0,.91.91Z" transform="translate(0.02 -5.42)" style="fill:#a59e86"/><path d="M77.38,143a3.28,3.28,0,0,1,3.44-.7.39.39,0,0,0,.5-.2.37.37,0,0,0-.19-.5h0a4,4,0,0,0-4.26.84,3.37,3.37,0,0,0-1.16,3.45.37.37,0,0,0,.36.27h.12a.38.38,0,0,0,.25-.47h0A2.63,2.63,0,0,1,77.38,143Z" transform="translate(0.02 -5.42)" style="fill:#a59e86"/><path d="M113.28,146.6a.32.32,0,0,0-.15.41,2.83,2.83,0,0,1-.15,3c-.93,1.24-3,1.83-5.26,1.49-2.06-.3-4.41-1.85-6.67-3.35l-1.15-.75a.3.3,0,1,0-.33.51h0l1.14.75c2.32,1.53,4.73,3.12,6.92,3.45a10.24,10.24,0,0,0,1.36.1,5.42,5.42,0,0,0,4.47-1.84,3.43,3.43,0,0,0,.22-3.62.3.3,0,0,0-.4-.15Z" transform="translate(0.02 -5.42)" style="fill:#a59e86"/><path d="M172.35,138.49h38.8a.3.3,0,1,0,0-.6h-38.8a.3.3,0,0,0,0,.6Z" transform="translate(0.02 -5.42)" style="fill:#a59e86"/><path d="M213.75,140.63a1.77,1.77,0,0,0-.42-.68,1.74,1.74,0,0,0-.67-.44,3.09,3.09,0,0,0-1.35-.14H173.24c-1.2,0-1.58.09-1.73.26a1,1,0,0,0-.3.63l-.09.37-.06.19-.11.38-.14.38c-.1.25-.18.5-.28.76l-.35.79a15.22,15.22,0,0,1-5.74,6.62l-.67.42-.65.34a11.56,11.56,0,0,1-1.23.59c-.4.18-.83.31-1.27.48a10.34,10.34,0,0,1-1.47.41,19.44,19.44,0,0,1-4.23.46,24.84,24.84,0,0,1-4.3-.4l-.81-.16-.74-.17c-.48-.11-.93-.24-1.37-.37a28.28,28.28,0,0,1-2.85-1,33.16,33.16,0,0,1-4-2l-.57-.33.2-.13c1.62-1,3.22-2.06,6.38-4.21a30.73,30.73,0,0,1,3-1.87,11.46,11.46,0,0,1,2.94-1.1,6,6,0,0,1,3.43.17,5.12,5.12,0,0,1,3.15,2.89,3.51,3.51,0,0,1-1.16,3.91,5.59,5.59,0,0,1-2,1.09,6.08,6.08,0,0,1-2.24.31,12.42,12.42,0,0,1-4.38-1.23c-1.06-.48-2.13-1-2.68-1.18s-.57,0,.57.88a15.48,15.48,0,0,0,4.22,2.26,8.83,8.83,0,0,0,3.39.4,7.5,7.5,0,0,0,2.65-.78,7.1,7.1,0,0,0,1.21-.81,5.26,5.26,0,0,0,1.12-1.28,4.49,4.49,0,0,0,.7-2,4.55,4.55,0,0,0-.44-2.54,6.3,6.3,0,0,0-1.81-2.19,7.6,7.6,0,0,0-1.93-1.07,6.74,6.74,0,0,0-1.77-.43,8.55,8.55,0,0,0-1.6,0c-2.06.19-4.07.89-7.46,2.77s-5,2.83-6.59,3.86l-1.25.79-.92-.63c-1-.68-1.78-1.23-2.6-1.75a25.36,25.36,0,0,0-2.79-1.55,14.71,14.71,0,0,0-4.55-1.28,9.87,9.87,0,0,0-4.78.62,6.42,6.42,0,0,0-1.57.89,8.12,8.12,0,0,0-1.19,1.08,8,8,0,0,0-.94,1.3,7.35,7.35,0,0,0-.7,1.69,6.16,6.16,0,0,0-.19,2.26,5.66,5.66,0,0,0,1.08,2.7A7,7,0,0,0,121,154a8.52,8.52,0,0,0,2.06.82,9.22,9.22,0,0,0,3.43.22c2.06-.26,4.11-1,7.45-2.93,2.25-1.32,3.71-2.21,4.93-3,.35.24.74.49,1.15.75a34.82,34.82,0,0,0,4.08,2.2,29.29,29.29,0,0,0,3,1.13c.47.13.93.29,1.44.41l.78.21.86.18a28,28,0,0,0,4.65.6,19.38,19.38,0,0,0,2.64,0l1.09-.11,1-.17c.62-.11,1.17-.28,1.69-.41a9.87,9.87,0,0,0,1.45-.5,20,20,0,0,0,2.33-1.12,6,6,0,0,0,.55-.31,2.83,2.83,0,0,0,.28-.2c.3-.19.62-.4.95-.64a7.15,7.15,0,0,1,.72-.42,4.31,4.31,0,0,0,.59-.44,4.17,4.17,0,0,0,.67-.33l.8-.51.8-.51a7.82,7.82,0,0,1,.81-.43l.47-.23a2.44,2.44,0,0,1,.54,0,3.08,3.08,0,0,1,.53.08,1.62,1.62,0,0,1,.46.22,1.14,1.14,0,0,1,.34.35,1,1,0,0,1,.16.43.7.7,0,0,1-.14.54.4.4,0,0,1-.42.09.56.56,0,0,1-.25-.33.36.36,0,0,0-.06-.23c-.06-.08-.07-.17-.23-.08a.61.61,0,0,0-.25.53.93.93,0,0,0,.36.63,1,1,0,0,0,.54.17,1.37,1.37,0,0,0,1.22-.34,1.13,1.13,0,0,0,.23-.34,1.91,1.91,0,0,0,.19-.91,1.86,1.86,0,0,0-.25-.86,2,2,0,0,0-.62-.64,2.24,2.24,0,0,0-.78-.33,3.29,3.29,0,0,0-.83-.07h-.63l.3-.25a2.94,2.94,0,0,1,.71-.5,11.26,11.26,0,0,1,4.23-1.3c2-.27,3.2.45,3.42,1.39s-.66.66-.77.49-.61-.33-.66.39,2.53,2.27,2.53-.72-5.34-3.54-9.32-1.33c-.38.21-.58.32-.77.44.15-.3.28-.58.39-.85h0a11.35,11.35,0,0,0,1.1-4h1c2.67,0,32.19-.07,34.86-.14h1.8l.66-.08a2.11,2.11,0,0,1,1.06,0,.78.78,0,0,1,.47.66,1.09,1.09,0,0,1-.25.85.92.92,0,0,1-.73.29.58.58,0,0,1-.51-.41.8.8,0,0,1,0-.57c.07-.17.12-.25,0-.27s-.3,0-.47.32a1.14,1.14,0,0,0,0,1.18,1.45,1.45,0,0,0,1.54.6,1.91,1.91,0,0,0,.8-.44,2.13,2.13,0,0,0,.47-.68A2.09,2.09,0,0,0,213.75,140.63Zm-80.94,9.43c-3.18,2-4.86,2.66-6.57,2.95a7.32,7.32,0,0,1-2.72,0,6.5,6.5,0,0,1-1.66-.56,4.83,4.83,0,0,1-1.7-1.3,4.17,4.17,0,0,1-.8-3.6,5.18,5.18,0,0,1,.5-1.36,7.2,7.2,0,0,1,.71-1.11,6.09,6.09,0,0,1,2.22-1.71,8.09,8.09,0,0,1,4.18-.58,13.12,13.12,0,0,1,4.15,1.21,22,22,0,0,1,2.63,1.5c.78.52,1.55,1.07,2.51,1.77l.46.33Z" transform="translate(0.02 -5.42)" style="fill:#a59e86"/><path d="M162.8,148.41a.91.91,0,1,0-.91-.91.91.91,0,0,0,.91.91Z" transform="translate(0.02 -5.42)" style="fill:#a59e86"/><path d="M163.82,144.78a.91.91,0,1,0-.91-.91A.91.91,0,0,0,163.82,144.78Z" transform="translate(0.02 -5.42)" style="fill:#a59e86"/><path d="M162.46,141.15a.91.91,0,1,0-.91-.91A.91.91,0,0,0,162.46,141.15Z" transform="translate(0.02 -5.42)" style="fill:#a59e86"/><path d="M158,146.31h.12a.4.4,0,0,0,.37-.28,3.39,3.39,0,0,0-1.17-3.45,4,4,0,0,0-4.26-.84.39.39,0,1,0,.3.72,3.24,3.24,0,0,1,3.44.7,2.62,2.62,0,0,1,.95,2.64.38.38,0,0,0,.23.5Z" transform="translate(0.02 -5.42)" style="fill:#a59e86"/><path d="M134,147.68l-1.15.75c-2.26,1.5-4.61,3-6.67,3.35-2.27.33-4.34-.25-5.26-1.49a2.83,2.83,0,0,1-.15-3,.3.3,0,0,0-.15-.4h0a.32.32,0,0,0-.41.15,3.43,3.43,0,0,0,.23,3.62,5.43,5.43,0,0,0,4.47,1.83,8.8,8.8,0,0,0,1.36-.1c2.19-.32,4.59-1.91,6.92-3.45l1.13-.74a.29.29,0,0,0,.09-.41h0a.28.28,0,0,0-.38-.12Z" transform="translate(0.02 -5.42)" style="fill:#a59e86"/><path d="M9.15,131.74a6.83,6.83,0,0,0-2.2.33,7.1,7.1,0,0,0,.27-2c0-1.76-.52-3.18-1.16-3.18S4.91,128.27,4.91,130a7.5,7.5,0,0,0,.24,2,7.08,7.08,0,0,0-2-.25c-1.75,0-3.17.52-3.17,1.16S1.42,134,3.17,134a7.08,7.08,0,0,0,2-.25,7.08,7.08,0,0,0-.25,2c0,1.75.52,3.18,1.16,3.18s1.15-1.43,1.15-3.18a7.47,7.47,0,0,0-.26-2,6.73,6.73,0,0,0,2.22.34c1.75,0,3.17-.52,3.17-1.16S10.9,131.74,9.15,131.74Z" transform="translate(0.02 -5.42)" style="fill:#ffabde"/><path d="M120.22,158.81a6.82,6.82,0,0,0-2.2.32,7.48,7.48,0,0,0,.27-2c0-1.76-.52-3.18-1.16-3.18s-1.16,1.42-1.16,3.18a7.07,7.07,0,0,0,.24,1.94,7.08,7.08,0,0,0-2-.25c-1.76,0-3.17.52-3.17,1.16s1.41,1.16,3.17,1.16a7.08,7.08,0,0,0,2-.25,7.51,7.51,0,0,0-.25,2c0,1.76.52,3.18,1.16,3.18s1.16-1.42,1.16-3.18a7.09,7.09,0,0,0-.26-2,7,7,0,0,0,2.22.33c1.75,0,3.16-.52,3.16-1.16S122,158.81,120.22,158.81Z" transform="translate(0.02 -5.42)" style="fill:#afd0ff"/><path d="M233.71,131.74a6.83,6.83,0,0,0-2.2.33,7.1,7.1,0,0,0,.27-2c0-1.76-.52-3.18-1.16-3.18s-1.16,1.42-1.16,3.18a7.07,7.07,0,0,0,.24,1.94,7.08,7.08,0,0,0-2-.25c-1.75,0-3.17.52-3.17,1.16S226,134,227.73,134a7.08,7.08,0,0,0,2-.25,7.51,7.51,0,0,0-.25,2c0,1.75.52,3.18,1.16,3.18s1.16-1.43,1.16-3.18a7.47,7.47,0,0,0-.26-2,6.73,6.73,0,0,0,2.22.34c1.75,0,3.17-.52,3.17-1.16S235.46,131.74,233.71,131.74Z" transform="translate(0.02 -5.42)" style="fill:#aafff8"/><path d="M149,27.58c-1-2.93-7.46-21.44-14.65-22.14-5.74-.56-10.1,12.68-11.39,17-2-.07-4.63-.09-6.57-.09h0c-1.94,0-4.56,0-6.58.09a72.78,72.78,0,0,0-3-8c-2.8-6.33-5.55-9.27-8.42-9-7.2.7-13.68,19.22-14.66,22.14a43.2,43.2,0,0,0-3.83,6.26,64.36,64.36,0,0,0-6,17.91C70.33,72,77.61,84.35,95.58,88.41a99,99,0,0,0,20.79,2.23h0a98.88,98.88,0,0,0,20.79-2.23c18-4.06,25.25-16.4,21.62-36.66C156.24,37.43,150,28.88,149,27.58ZM97.89,66.7a9.21,9.21,0,1,1,9.21-9.2A9.2,9.2,0,0,1,97.89,66.7Zm36.87,0A9.21,9.21,0,1,1,144,57.5,9.21,9.21,0,0,1,134.76,66.7Z" transform="translate(0.02 -5.42)" style="fill:#a59e86"/><path d="M97.89,52.37A5.13,5.13,0,1,0,103,57.5,5.12,5.12,0,0,0,97.89,52.37Z" transform="translate(0.02 -5.42)" style="fill:#a59e86"/><path d="M134.76,52.37a5.13,5.13,0,1,0,5.13,5.13A5.13,5.13,0,0,0,134.76,52.37Z" transform="translate(0.02 -5.42)" style="fill:#a59e86"/><path d="M92.23,134c0-.29-.07-.59-.11-.9s-.07-.63-.11-.93-.07-.6-.11-.88-.07-.54-.1-.77a.86.86,0,0,0-.3-.59.75.75,0,0,0-.52-.16,1,1,0,0,0-.56.19,1.08,1.08,0,0,0-.42.5l-1.25,2.74c-.13-.27-.28-.61-.46-1s-.39-.84-.61-1.32l-.24-.47a1.77,1.77,0,0,0-.24-.32,1,1,0,0,0-.29-.17,1.17,1.17,0,0,0-.39,0,1.2,1.2,0,0,0-.37.08.62.62,0,0,0-.25.2,1,1,0,0,0-.17.36,3.75,3.75,0,0,0-.13.51c0,.22-.08.47-.12.74s-.07.55-.1.84l-.09.86c0,.29-.05.56-.07.81s0,.48,0,.69a5,5,0,0,0,0,.5.72.72,0,0,0,0,.33.81.81,0,0,0,.17.24.78.78,0,0,0,.24.16,1.1,1.1,0,0,0,.26.06.67.67,0,0,0,.28,0,.58.58,0,0,0,.25-.12.84.84,0,0,0,.18-.23.66.66,0,0,0,.07-.32c0-.18,0-.38,0-.59l.06-.67c0-.22.05-.45.08-.68s.05-.43.08-.63l1.15,2.67a1,1,0,0,0,.31.42.61.61,0,0,0,.4.12.7.7,0,0,0,.39-.16.9.9,0,0,0,.29-.42l1-2.6c0,.23.07.48.11.76s.08.54.12.79.07.48.1.68a3.38,3.38,0,0,0,.06.42.75.75,0,0,0,.1.32.64.64,0,0,0,.2.2.85.85,0,0,0,.26.11.66.66,0,0,0,.28,0,1.34,1.34,0,0,0,.26-.09.72.72,0,0,0,.22-.17.61.61,0,0,0,.15-.26.68.68,0,0,0,0-.33c0-.17,0-.39-.07-.63S92.27,134.3,92.23,134Z" transform="translate(0.02 -5.42)" style="fill:#a59e86"/><path d="M94.63,132.06a.75.75,0,0,0-.19-.24.77.77,0,0,0-.25-.14.69.69,0,0,0-.28-.05.74.74,0,0,0-.29.05.89.89,0,0,0-.25.14.83.83,0,0,0-.24.59l0,3.11a.94.94,0,0,0,.07.34.65.65,0,0,0,.19.24.77.77,0,0,0,.25.14.69.69,0,0,0,.28,0,.74.74,0,0,0,.29,0,.73.73,0,0,0,.25-.15.94.94,0,0,0,.18-.25.9.9,0,0,0,.06-.34l0-3.1A.77.77,0,0,0,94.63,132.06Z" transform="translate(0.02 -5.42)" style="fill:#a59e86"/><path d="M94.53,129.58a1,1,0,0,0-.24-.16.89.89,0,0,0-.28-.07,1,1,0,0,0-.3.05.86.86,0,0,0-.28.2l-.17.18a1,1,0,0,0-.19.3.78.78,0,0,0,0,.3.9.9,0,0,0,.08.28.81.81,0,0,0,.17.23.78.78,0,0,0,.24.16.73.73,0,0,0,.29.07.74.74,0,0,0,.29-.05.89.89,0,0,0,.29-.2l.17-.18a.7.7,0,0,0,.18-.29.64.64,0,0,0,0-.3.6.6,0,0,0-.08-.29A.66.66,0,0,0,94.53,129.58Z" transform="translate(0.02 -5.42)" style="fill:#a59e86"/><path d="M99.16,134.36a.75.75,0,0,0-.4,0,1,1,0,0,0-.44.22.92.92,0,0,1-.47.22,1,1,0,0,1-.45,0,.89.89,0,0,1-.35-.21.46.46,0,0,1-.17-.31,1.41,1.41,0,0,1,0-.71,1.18,1.18,0,0,1,.29-.53.77.77,0,0,1,.4-.24.48.48,0,0,1,.39.12.86.86,0,0,0,.53.22A1.06,1.06,0,0,0,99,133a.73.73,0,0,0,.32-.35.68.68,0,0,0,0-.54,1.34,1.34,0,0,0-.37-.5,1.55,1.55,0,0,0-.55-.3,2.49,2.49,0,0,0-.68-.08,2.69,2.69,0,0,0-.73.14,2.16,2.16,0,0,0-.69.38,2.8,2.8,0,0,0-.58.69,3,3,0,0,0-.37.93,3.22,3.22,0,0,0,0,1.12,2.4,2.4,0,0,0,.2.64,2.23,2.23,0,0,0,.83.89,2.7,2.7,0,0,0,.55.24,2.52,2.52,0,0,0,.61.11,2.64,2.64,0,0,0,.62,0,2.47,2.47,0,0,0,.6-.19,2.17,2.17,0,0,0,.55-.36.82.82,0,0,0,.27-.39.73.73,0,0,0,0-.41.76.76,0,0,0-.16-.34A.78.78,0,0,0,99.16,134.36Z" transform="translate(0.02 -5.42)" style="fill:#a59e86"/><path d="M104.42,134.76c0-.18,0-.39,0-.61v-.64c0-.2,0-.36,0-.48a4.05,4.05,0,0,0-.09-.71,1.35,1.35,0,0,0-.23-.54,1.24,1.24,0,0,0-.41-.32,1.43,1.43,0,0,0-.5-.14,2.57,2.57,0,0,0-.55,0,3.8,3.8,0,0,0-.55.16l-.16.07-.16.08v-1.48a.74.74,0,0,0-.07-.34.55.55,0,0,0-.18-.24.68.68,0,0,0-.26-.15.87.87,0,0,0-.28,0,.71.71,0,0,0-.28.06.64.64,0,0,0-.25.15.65.65,0,0,0-.17.25.74.74,0,0,0-.07.34v5.23a.74.74,0,0,0,.07.34.55.55,0,0,0,.18.24.84.84,0,0,0,.26.15.86.86,0,0,0,.28,0,.69.69,0,0,0,.28,0,.64.64,0,0,0,.25-.15.83.83,0,0,0,.24-.59V133.7a1.64,1.64,0,0,1,.17-.3,2,2,0,0,1,.29-.29.88.88,0,0,1,.31-.17.16.16,0,0,1,.21.06.77.77,0,0,1,.11.36c0,.16,0,.33,0,.51s0,.37,0,.54,0,.31,0,.42,0,.32,0,.44a1.4,1.4,0,0,0,.06.32.82.82,0,0,0,.11.25.55.55,0,0,0,.19.18.79.79,0,0,0,.48.16.72.72,0,0,0,.44-.13.77.77,0,0,0,.3-.36.85.85,0,0,0,0-.53A2.62,2.62,0,0,1,104.42,134.76Z" transform="translate(0.02 -5.42)" style="fill:#a59e86"/><path d="M106.75,129.58a1,1,0,0,0-.24-.16,1,1,0,0,0-.29-.07,1,1,0,0,0-.29.05.89.89,0,0,0-.29.2l-.16.18a.72.72,0,0,0-.19.3.63.63,0,0,0,0,.3.69.69,0,0,0,.08.28.66.66,0,0,0,.17.23.78.78,0,0,0,.24.16.68.68,0,0,0,.28.07.79.79,0,0,0,.3-.05.86.86,0,0,0,.28-.2l.17-.18a.85.85,0,0,0,.19-.29.8.8,0,0,0,0-.3,1,1,0,0,0-.08-.29A.81.81,0,0,0,106.75,129.58Z" transform="translate(0.02 -5.42)" style="fill:#a59e86"/><path d="M106.84,132.06a.72.72,0,0,0-.18-.24.89.89,0,0,0-.25-.14.74.74,0,0,0-.29-.05.69.69,0,0,0-.28.05.77.77,0,0,0-.25.14.64.64,0,0,0-.18.25.9.9,0,0,0-.06.34l0,3.11a.77.77,0,0,0,.07.34.76.76,0,0,0,.18.24.82.82,0,0,0,.26.14.81.81,0,0,0,.56,0,.68.68,0,0,0,.26-.15.74.74,0,0,0,.17-.25.89.89,0,0,0,.07-.34l0-3.1A.77.77,0,0,0,106.84,132.06Z" transform="translate(0.02 -5.42)" style="fill:#a59e86"/><path d="M112.07,132.49a2,2,0,0,0-.53-.68,2.16,2.16,0,0,0-.77-.39,2.64,2.64,0,0,0-.94-.1,2.9,2.9,0,0,0-1.1.28,2,2,0,0,0-.68.58,2.08,2.08,0,0,0-.36.75,3.49,3.49,0,0,0-.13.83,2,2,0,0,0,.21,1.17,2.39,2.39,0,0,0,.7.81,2.48,2.48,0,0,0,1,.41,2.7,2.7,0,0,0,1.06,0,2.51,2.51,0,0,0,.73-.3,2.36,2.36,0,0,0,.63-.55,2.56,2.56,0,0,0,.4-.81,2.61,2.61,0,0,0,.08-1.06A2.72,2.72,0,0,0,112.07,132.49ZM110.74,134a.9.9,0,0,1-.17.32.72.72,0,0,1-.25.21,1,1,0,0,1-.3.1.85.85,0,0,1-.36,0,.79.79,0,0,1-.29-.18,1,1,0,0,1-.19-.29,1.13,1.13,0,0,1,.15-1,.84.84,0,0,1,1.22-.06.78.78,0,0,1,.16.24,1.54,1.54,0,0,1,.07.27A1.28,1.28,0,0,1,110.74,134Z" transform="translate(0.02 -5.42)" style="fill:#a59e86"/><path d="M120.78,135c0-.08,0-.17,0-.26s0-.19,0-.28a2.54,2.54,0,0,1,0-.26l0-4a.75.75,0,0,0-.07-.35,1,1,0,0,0-.19-.26.82.82,0,0,0-.26-.14,1,1,0,0,0-.29,0,.71.71,0,0,0-.29.05.68.68,0,0,0-.26.15.74.74,0,0,0-.24.6v1.31a2.45,2.45,0,0,0-.81-.07,2.4,2.4,0,0,0-.8.19,2.33,2.33,0,0,0-.7.47,2.08,2.08,0,0,0-.49.77A3,3,0,0,0,116,134a2.34,2.34,0,0,0,.2.93,2.16,2.16,0,0,0,.53.7,2.27,2.27,0,0,0,.77.44,2.15,2.15,0,0,0,.55.11,2.86,2.86,0,0,0,.51,0,2.31,2.31,0,0,0,.47-.11,3,3,0,0,0,.4-.16.63.63,0,0,0,.4.26.86.86,0,0,0,.48,0,1.1,1.1,0,0,0,.26-.14.73.73,0,0,0,.21-.22,1,1,0,0,0,.1-.3.74.74,0,0,0-.06-.35Zm-2.21-.29a.84.84,0,0,1-.5,0,.78.78,0,0,1-.33-.21.87.87,0,0,1-.16-.3.92.92,0,0,1,0-.33,1,1,0,0,1,.11-.34.8.8,0,0,1,.22-.27,1.06,1.06,0,0,1,.33-.18.69.69,0,0,1,.38,0,.81.81,0,0,1,.39.2l0,0,0,0v1.21A1.48,1.48,0,0,1,118.57,134.69Z" transform="translate(0.02 -5.42)" style="fill:#a59e86"/><path d="M126.14,135c0-.08,0-.16,0-.26s0-.18,0-.28a1.14,1.14,0,0,1,0-.25l0-2.19a.78.78,0,0,0-.08-.35.69.69,0,0,0-.19-.25.74.74,0,0,0-.26-.15,1,1,0,0,0-.29,0,.82.82,0,0,0-.4.1.62.62,0,0,0-.3.3,3,3,0,0,0-.83-.15,2,2,0,0,0-.82.13,2.29,2.29,0,0,0-.72.45,2.1,2.1,0,0,0-.52.8,2.85,2.85,0,0,0-.23,1.13,2.18,2.18,0,0,0,.2.93,1.92,1.92,0,0,0,.53.7,2.23,2.23,0,0,0,.76.44,2.85,2.85,0,0,0,1,.14,2.28,2.28,0,0,0,1-.25.63.63,0,0,0,.41.27.86.86,0,0,0,.48,0,.94.94,0,0,0,.26-.14.63.63,0,0,0,.21-.22.76.76,0,0,0,.1-.3.78.78,0,0,0,0-.36A1.06,1.06,0,0,1,126.14,135ZM124,134.6a.83.83,0,0,1-.54,0,.66.66,0,0,1-.32-.22.9.9,0,0,1-.17-.32.93.93,0,0,1,0-.37,1,1,0,0,1,.1-.33.8.8,0,0,1,.22-.23,1,1,0,0,1,.34-.13,1.13,1.13,0,0,1,.41,0,1,1,0,0,1,.43.17v1.18A1,1,0,0,1,124,134.6Z" transform="translate(0.02 -5.42)" style="fill:#a59e86"/><path d="M134.52,133.22c0-.13,0-.27,0-.4a2.6,2.6,0,0,0,0-.39,1.65,1.65,0,0,0-.11-.36,1.23,1.23,0,0,0-.23-.33,1.75,1.75,0,0,0-.55-.35,1.49,1.49,0,0,0-.59-.09,2.18,2.18,0,0,0-.6.14,3.55,3.55,0,0,0-.58.3.65.65,0,0,0-.29-.36.88.88,0,0,0-.44-.12,1,1,0,0,0-.29.05.8.8,0,0,0-.42.39.77.77,0,0,0-.07.34l0,3.45a.74.74,0,0,0,.07.34.64.64,0,0,0,.18.25.82.82,0,0,0,.26.14.92.92,0,0,0,.28.05,1,1,0,0,0,.29-.05.64.64,0,0,0,.25-.15.65.65,0,0,0,.17-.25.71.71,0,0,0,.07-.34v-1.81a1.7,1.7,0,0,1,.23-.24,3,3,0,0,1,.3-.23,1.64,1.64,0,0,1,.28-.16.35.35,0,0,1,.19,0,.23.23,0,0,1,.1.13,1.56,1.56,0,0,1,0,.25,1.82,1.82,0,0,1,0,.33c0,.13,0,.25,0,.38a3.57,3.57,0,0,0,0,.37c0,.14,0,.29,0,.44s0,.3,0,.44a2.15,2.15,0,0,0,.07.35.8.8,0,0,0,.41.48.76.76,0,0,0,.53.07.59.59,0,0,0,.24-.09.68.68,0,0,0,.21-.17,1,1,0,0,0,.13-.23.69.69,0,0,0,0-.29,7.12,7.12,0,0,1-.08-1.12C134.51,134,134.52,133.6,134.52,133.22Z" transform="translate(0.02 -5.42)" style="fill:#a59e86"/><path d="M138.88,131.64a2.4,2.4,0,0,0-.8-.36,2.17,2.17,0,0,0-.88,0,2.5,2.5,0,0,0-.78.27,2.23,2.23,0,0,0-.66.57,2.72,2.72,0,0,0-.43.85,3.24,3.24,0,0,0-.11,1.15,2.41,2.41,0,0,0,.17.78,2.55,2.55,0,0,0,.39.63,2.45,2.45,0,0,0,.55.46,2.51,2.51,0,0,0,.68.28,3,3,0,0,0,.89.07,2.35,2.35,0,0,0,.93-.27.89.89,0,0,0,.46-.46.6.6,0,0,0,0-.54.83.83,0,0,0-.19-.23.61.61,0,0,0-.24-.15.79.79,0,0,0-.3,0,.93.93,0,0,0-.34.1,1.17,1.17,0,0,1-.44.13,1.36,1.36,0,0,1-.42,0,.77.77,0,0,1-.27-.16,1,1,0,0,1-.22-.24l2.19-.11a.65.65,0,0,0,.29-.07.49.49,0,0,0,.21-.16.63.63,0,0,0,.13-.2.68.68,0,0,0,0-.23.78.78,0,0,0,0-.27,2.26,2.26,0,0,0-.28-1A2.14,2.14,0,0,0,138.88,131.64Zm-2,1.56a.82.82,0,0,1,.57-.46.49.49,0,0,1,.37.06.67.67,0,0,1,.29.33Z" transform="translate(0.02 -5.42)" style="fill:#a59e86"/><path d="M143.33,133.38l.94-.86a.86.86,0,0,0,.2-.28.89.89,0,0,0,.06-.31.75.75,0,0,0-.06-.29.61.61,0,0,0-.15-.24,1,1,0,0,0-.22-.18.74.74,0,0,0-.27-.1.77.77,0,0,0-.3,0,.67.67,0,0,0-.3.18L142,132.47v-2.22a.81.81,0,0,0-.11-.43.75.75,0,0,0-.3-.26.78.78,0,0,0-.37-.09.85.85,0,0,0-.38.09.79.79,0,0,0-.29.26.73.73,0,0,0-.12.43v5.27a.73.73,0,0,0,.12.43.79.79,0,0,0,.29.26.85.85,0,0,0,.38.09.78.78,0,0,0,.37-.09.75.75,0,0,0,.3-.26.81.81,0,0,0,.11-.43v-.92l.19-.17,1.06,1.48a1.12,1.12,0,0,0,.25.24.81.81,0,0,0,.29.09.67.67,0,0,0,.28,0,.85.85,0,0,0,.26-.11,1,1,0,0,0,.21-.2.81.81,0,0,0,.11-.27.76.76,0,0,0,0-.3.85.85,0,0,0-.14-.31Z" transform="translate(0.02 -5.42)" style="fill:#a59e86"/><path d="M149.74,133.43a3,3,0,0,0-.26-.94,2,2,0,0,0-1.31-1.07,2.64,2.64,0,0,0-.94-.1,2.9,2.9,0,0,0-1.1.28,2.05,2.05,0,0,0-.68.58,2.08,2.08,0,0,0-.36.75,4.08,4.08,0,0,0-.13.83,2.1,2.1,0,0,0,.21,1.17,2.39,2.39,0,0,0,.7.81,2.54,2.54,0,0,0,1,.41,2.7,2.7,0,0,0,1.06,0,2.51,2.51,0,0,0,.73-.3,2.17,2.17,0,0,0,.62-.55,2.38,2.38,0,0,0,.41-.81A2.61,2.61,0,0,0,149.74,133.43Zm-1.6.61a1.07,1.07,0,0,1-.16.32.86.86,0,0,1-.26.21,1,1,0,0,1-.3.1.85.85,0,0,1-.36,0,.79.79,0,0,1-.29-.18,1,1,0,0,1-.19-.29,1.13,1.13,0,0,1,.15-1,.84.84,0,0,1,1.22-.06.78.78,0,0,1,.16.24,1.54,1.54,0,0,1,.07.27A1.08,1.08,0,0,1,148.14,134Z" transform="translate(0.02 -5.42)" style="fill:#a59e86"/><path d="M34.4,121l-.07-.1C34.3,121.13,34.33,121.16,34.4,121Z" transform="translate(0.02 -5.42)" style="fill:#a59e86"/><path d="M43,115.44,41.86,115l-.48-.15a16.7,16.7,0,0,0,.67-4.39,2.68,2.68,0,0,0-.34-1.67,4.86,4.86,0,0,0-2-.25c-.59,0-.94.06-1,.18s-.5,1.44-1.44,4.32c-2-.69-3.81-1.27-5.54-1.74l2.15-5.46a16.87,16.87,0,0,0,1.18-5.5,2.55,2.55,0,0,0-.33-1.44,14.42,14.42,0,0,0-5.25-.7,38,38,0,0,0-5.09.37c-2.71.37-4.18.77-4.4,1.22a1.89,1.89,0,0,0-.18,1c0,1.25.23,2,.7,2.21a20.66,20.66,0,0,0,4.06.19c1.67,0,3.45-.07,5.32-.19a29.39,29.39,0,0,1-2.33,7.5,21.66,21.66,0,0,0-2.91-.19q-9,0-9,6.57a5.54,5.54,0,0,0,1.62,4.14,5.33,5.33,0,0,0,4.14,1.7A3.81,3.81,0,0,0,23,122.3a11.34,11.34,0,0,0,4.14-2.8,20.85,20.85,0,0,0,2.92-4.32l1.44.33q.81.15,1.47.33c1.11.27,2.13.54,3.07.82-.54,1.57-1,2.76-1.29,3.58-.16.41-.28.68-.34.8a4.19,4.19,0,0,0,1.15,1,4,4,0,0,0,1.59.78,15.72,15.72,0,0,0,3.17-4.76l2.11.7c.39,0,.7-.3.92-.89a3.28,3.28,0,0,0,.44-1.44A1,1,0,0,0,43,115.44Zm-21.49,2.8a1.5,1.5,0,0,1-1.1-.48,1.31,1.31,0,0,1-.52-1q0-2.22,4.65-2.14h.81C23.67,117,22.39,118.24,21.55,118.24Z" transform="translate(0.02 -5.42)" style="fill:#a59e86"/><path d="M70.29,99.71l-4.39.07c.42-2,.63-3.12.63-3.25,0-.39-.34-.71-1-1a4.46,4.46,0,0,0-1.7-.4.85.85,0,0,0-.48.11q-.66.43-2.18,4.91c-2,.2-3.25.33-3.62.4a14.57,14.57,0,0,0-3.39.85q-.48.23-.48,1.11c0,1.23.32,2,1,2.18a8.36,8.36,0,0,0,2.51.18h1.22c.49,0,1,0,1.4,0a36.73,36.73,0,0,0-1.26,7.94,9.71,9.71,0,0,0,.23,2.06c.07.35.46.52,1.18.52a12.12,12.12,0,0,0,2.32-.29,16.74,16.74,0,0,1,2.48-.3,4.59,4.59,0,0,1,2.51.7,2.48,2.48,0,0,1,1.4,2.22c0,1.65-1.65,2.91-4.95,3.8-.32.12-.48.58-.48,1.37a2.24,2.24,0,0,0,.52,1.73,9.86,9.86,0,0,0,1.51.11,8.88,8.88,0,0,0,5.69-1.88,6.64,6.64,0,0,0,2.55-5.36,6,6,0,0,0-2.73-4.87,9.39,9.39,0,0,0-5.54-1.7,9.3,9.3,0,0,0-2.07.26l1.62-6.5c1.33,0,2.54-.11,3.62-.18.91-.05,1.66-.11,2.25-.19a33.27,33.27,0,0,0,5.58-1,7.61,7.61,0,0,0,.18-1.66,4,4,0,0,0-.33-1.77C74.43,99.78,72.51,99.71,70.29,99.71Z" transform="translate(0.02 -5.42)" style="fill:#a59e86"/><path d="M101,109.83c-.1-.91-.28-2.07-.52-3.48a24.19,24.19,0,0,0,6-1.21,8.35,8.35,0,0,0,.07-1,3.94,3.94,0,0,0-.48-2.14,36.2,36.2,0,0,0-6.57-.26l-.7-2.8a1.86,1.86,0,0,0-1.92-1.22c-1.33,0-2,.51-2,1.55,0,.22.15,1.19.45,2.92-1.56.14-2.56.27-3,.36a8.61,8.61,0,0,0-2.73.6c-.23.09-.34.45-.34,1.07,0,1.32.19,2.11.56,2.36q.81.33,6.46.11c.1.54.18,1.13.26,1.77l.14,1.81A12.15,12.15,0,0,0,90.6,113,7.85,7.85,0,0,0,88,119a6.29,6.29,0,0,0,1.77,4.65,6,6,0,0,0,4.54,1.74,6.53,6.53,0,0,0,5.39-2.66,9.45,9.45,0,0,0,1.88-5.91,16.51,16.51,0,0,0-.22-2.51q4.73.22,5.58,5.47l.18,2.07a1.34,1.34,0,0,0,.7.88,3.14,3.14,0,0,0,1.33.33c1.53,0,2.29-.86,2.29-2.58,0-3.42-.86-6-2.58-7.75S104.57,110.15,101,109.83Zm-4.44,9.3a2.42,2.42,0,0,1-2.14,1.33c-1.23,0-1.84-.8-1.84-2.4,0-1.8,1.42-2.83,4.28-3.1a4.91,4.91,0,0,1,.26,1.62A6.28,6.28,0,0,1,96.54,119.13Z" transform="translate(0.02 -5.42)" style="fill:#a59e86"/><path d="M113.46,100.26l-.41-.33-.19-.07a4.55,4.55,0,0,0-1.73.81c-.79.64-1.18,1.06-1.18,1.25,0,.74.63,2,1.88,3.66s2.2,2.77,2.77,3a10.08,10.08,0,0,0,3-1.88,13.48,13.48,0,0,0-1.55-3.44A11.09,11.09,0,0,0,113.46,100.26Z" transform="translate(0.02 -5.42)" style="fill:#a59e86"/><path d="M150.86,96.79a5.77,5.77,0,0,0-1.29.26c-.52.15-.78.33-.78.55a5.14,5.14,0,0,0,.63,2.26,4.48,4.48,0,0,0,1.18,1.92,4.94,4.94,0,0,0,2.22-.71v-.29a5.82,5.82,0,0,0-.6-2.36C151.81,97.33,151.35,96.79,150.86,96.79Z" transform="translate(0.02 -5.42)" style="fill:#a59e86"/><path d="M143.81,101.59a2.28,2.28,0,0,0-.19-1.14,40.64,40.64,0,0,0-7.86-.56c.29-1,.51-1.79.66-2.36a4.8,4.8,0,0,0,.22-1c0-.42-.28-.75-.85-1a3,3,0,0,0-1.44-.41,1.4,1.4,0,0,0-1,.37,28.47,28.47,0,0,0-2.21,4.69,30,30,0,0,0-6.17.92c-.34.13-.51.59-.51,1.4q0,1.59.51,1.92c.27.25,1.74.39,4.4.41q-5.2,14-5.32,19.09a4.17,4.17,0,0,0,2.77,1.11,1.62,1.62,0,0,0,.52-.08l3.65-10.3q1.82-5.35,3.25-9.89c2.46-.08,4-.15,4.73-.23a24.68,24.68,0,0,0,4.43-.7A7.72,7.72,0,0,0,143.81,101.59Z" transform="translate(0.02 -5.42)" style="fill:#a59e86"/><path d="M146.54,102.29a4.84,4.84,0,0,0,2.25-.74v-.29a6,6,0,0,0-.63-2.36c-.44-1.06-.9-1.59-1.36-1.59a3.54,3.54,0,0,0-1.26.26c-.51.19-.77.37-.77.51a5.42,5.42,0,0,0,.59,2.33A4.91,4.91,0,0,0,146.54,102.29Z" transform="translate(0.02 -5.42)" style="fill:#a59e86"/><path d="M149.83,108.79a13.83,13.83,0,0,0-3.51-.44,18.55,18.55,0,0,0-3.44.37,7.69,7.69,0,0,0-3.1,1c-.07,0-.11.25-.11.59a12.77,12.77,0,0,0,.15,1.52,3.23,3.23,0,0,0,.4,1.29,5.9,5.9,0,0,0,2,.18c3.72,0,6.21-.34,7.49-1a13.85,13.85,0,0,0,.19-2.25,5.6,5.6,0,0,0,0-.74A3.94,3.94,0,0,0,149.83,108.79Z" transform="translate(0.02 -5.42)" style="fill:#a59e86"/><path d="M149.68,120.05l-1.74-.66-2.1-.78a18,18,0,0,0-3.92-.92c-.14,0-.48.42-1,1.26a5.06,5.06,0,0,0-.78,1.62v.11c-.05.39.72.94,2.29,1.62a15.57,15.57,0,0,0,2.92,1.15,9.34,9.34,0,0,0,2.62.44,3.16,3.16,0,0,0,1.55-.33,9.86,9.86,0,0,0,.22-2.29,6.23,6.23,0,0,0,0-.74A3.23,3.23,0,0,0,149.68,120.05Z" transform="translate(0.02 -5.42)" style="fill:#a59e86"/><path d="M188.89,117.14c-.35-.23-.8-.48-1.37-.78l-1.36-.78v-1a14.56,14.56,0,0,0-.78-5.36,6.79,6.79,0,0,0-3.65-3.8,8,8,0,0,0-3-.55q-3.91,0-9.79,4.24c.35-.56.72-1.23,1.11-2l1.18-2.4a18.29,18.29,0,0,0,1.63-3.66,3.16,3.16,0,0,0-.41-1.25,1.84,1.84,0,0,0-1.07-.59l0-.08L169.43,99l.11-2.1c0-.62-.55-.92-1.66-.92a1.52,1.52,0,0,0-1.59.92,11.34,11.34,0,0,0-.51,2.21c-3.43.25-5.48.58-6.17,1-.22.1-.33.6-.33,1.52s.1,1.32.29,1.47q.52.56,5.61.33l-.4,4.32a52.1,52.1,0,0,0-5.87,11.63c.05.28.37.58,1,.93a3.08,3.08,0,0,0,1.29.48c.74-.89,1.78-2.33,3.14-4.32l0,1.73v1.26a39.11,39.11,0,0,0,.26,5.24,4.35,4.35,0,0,0,2.07.56,2.1,2.1,0,0,0,.59-.08.73.73,0,0,0,.37-.15c.22-1.55.42-3.19.59-4.94q.3-3,.48-6.28A37.4,37.4,0,0,1,173,110.6a9.83,9.83,0,0,1,5.06-1.73,3.33,3.33,0,0,1,3.1,1.62,8.56,8.56,0,0,1,.74,3.73,9.48,9.48,0,0,0-2-.26,6.07,6.07,0,0,0-4.17,1.55,5,5,0,0,0-1.88,4,4.73,4.73,0,0,0,1.66,3.76,5.65,5.65,0,0,0,3.95,1.52q4.35,0,6.2-5.84a10.48,10.48,0,0,0,2.47.78c.27,0,.5-.22.67-.67a2,2,0,0,0,.29-1.07,4.05,4.05,0,0,0,0-.52A1.38,1.38,0,0,0,188.89,117.14Zm-8.2,2.8a1.84,1.84,0,0,1-1.7,1.15,1.4,1.4,0,0,1-1.58-1.59,1.64,1.64,0,0,1,.85-1.48,2.43,2.43,0,0,1,1.62-.59,3.53,3.53,0,0,1,1.62.44A9.29,9.29,0,0,1,180.69,119.94Z" transform="translate(0.02 -5.42)" style="fill:#a59e86"/><path d="M202.51,102.59a5.51,5.51,0,0,0,.67.11c1.08.1,2.15.23,3.21.41.84.12,1.74.28,2.7.47a11.33,11.33,0,0,1,1.7.6l1.14.48a3.18,3.18,0,0,0,.7.25c-.1.18-.18.35-.26.52l-.22.52a2.72,2.72,0,0,0,1.4,1.07c.82.42,1.41.7,1.78.85a4.41,4.41,0,0,0,2.21-3.77c0-1.67-1.44-3.09-4.32-4.24a20.79,20.79,0,0,0-7-1.33,11.39,11.39,0,0,0-4.29.59c-.19.07-.29.44-.29,1.11,0,1.25.18,2,.55,2.32Z" transform="translate(0.02 -5.42)" style="fill:#a59e86"/><path d="M214.77,117.84a11.23,11.23,0,0,1-5.83,1.36c-2.49,0-4.28-.44-5.39-1.33h-.15a4.37,4.37,0,0,0-1.59.85c-.74.62-1.1,1-1.1,1.19v.22c0,.12.18.37.55.74a9.68,9.68,0,0,0,7.57,3.17,13.64,13.64,0,0,0,4.84-1c1.91-.74,3.15-1.62,3.69-2.66A6.55,6.55,0,0,0,214.77,117.84Z" transform="translate(0.02 -5.42)" style="fill:#a59e86"/></svg>